<svg width="200" height="150" viewBox="0 0 200 150" fill="none" xmlns="http://www.w3.org/2000/svg">
<path d="M0 0H200V150H0V0Z" fill="#D34053"/>
<path d="M122.5 55.25L122.5 50" stroke="black" stroke-width="4" stroke-linecap="round"/>
<path d="M129.5 55.25L129.5 50" stroke="black" stroke-width="4" stroke-linecap="round"/>
<path d="M110.25 41.25H141.75H140.5C138.614 41.25 137.672 41.25 137.086 41.8358C136.5 42.4216 136.5 43.3644 136.5 45.25V60C136.5 61.8856 136.5 62.8284 135.914 63.4142C135.328 64 134.386 64 132.5 64H119.5C117.614 64 116.672 64 116.086 63.4142C115.5 62.8284 115.5 61.8856 115.5 60V45.25C115.5 43.3644 115.5 42.4216 114.914 41.8358C114.328 41.25 113.386 41.25 111.5 41.25H110.25Z" stroke="black" stroke-width="4" stroke-linecap="round"/>
<path d="M122.619 34.8985C122.819 34.7125 123.258 34.5481 123.869 34.4308C124.481 34.3136 125.23 34.25 126 34.25C126.77 34.25 127.519 34.3136 128.131 34.4308C128.742 34.5481 129.181 34.7125 129.381 34.8985" stroke="black" stroke-width="4" stroke-linecap="round"/>
<path d="M19.456 46.568H21.472C21.824 46.568 22 46.728 22 47.048V58.088C22 59.336 21.648 60.304 20.944 60.992C20.256 61.664 19.288 62 18.04 62H15.4C14.136 62 13.16 61.664 12.472 60.992C11.784 60.32 11.44 59.352 11.44 58.088V47.072C11.44 46.736 11.608 46.568 11.944 46.568H13.984C14.32 46.568 14.488 46.736 14.488 47.072V57.944C14.488 58.456 14.592 58.824 14.8 59.048C15.024 59.256 15.384 59.36 15.88 59.36H17.536C18.048 59.36 18.408 59.256 18.616 59.048C18.84 58.824 18.952 58.456 18.952 57.944V47.072C18.952 46.736 19.12 46.568 19.456 46.568ZM36.5817 62H32.0217C31.7017 62 31.5417 61.832 31.5417 61.496V59.96C31.5417 59.784 31.5737 59.664 31.6377 59.6C31.7017 59.52 31.8297 59.48 32.0217 59.48H36.0297C36.8137 59.48 37.2057 59.24 37.2057 58.76V58.64C37.2057 58.256 36.8777 57.888 36.2217 57.536L33.8457 56.216C33.0297 55.8 32.4297 55.352 32.0457 54.872C31.6617 54.392 31.4697 53.776 31.4697 53.024C31.4697 51.904 31.7657 51.08 32.3577 50.552C32.9497 50.024 33.8777 49.76 35.1417 49.76H39.1497C39.4697 49.76 39.6297 49.928 39.6297 50.264V51.824C39.6297 52 39.5977 52.128 39.5337 52.208C39.4697 52.272 39.3417 52.304 39.1497 52.304H35.8137C35.0297 52.304 34.6377 52.504 34.6377 52.904V53.024C34.6377 53.376 34.9817 53.736 35.6697 54.104L38.0937 55.544C38.9257 55.992 39.5097 56.456 39.8457 56.936C40.1817 57.4 40.3497 58.016 40.3497 58.784C40.3497 60.928 39.0937 62 36.5817 62ZM58.6971 62H53.3931C52.1291 62 51.1531 61.664 50.4651 60.992C49.7771 60.32 49.4331 59.352 49.4331 58.088V53.672C49.4331 52.408 49.7771 51.44 50.4651 50.768C51.1531 50.096 52.1291 49.76 53.3931 49.76H55.2891C56.5531 49.76 57.5291 50.096 58.2171 50.768C58.9051 51.44 59.2491 52.408 59.2491 53.672V56.72C59.2491 57.056 59.0811 57.224 58.7451 57.224H52.7211C52.5291 57.224 52.4331 57.312 52.4331 57.488V58.016C52.4331 58.512 52.5371 58.872 52.7451 59.096C52.9691 59.304 53.3371 59.408 53.8491 59.408H58.6971C59.0331 59.408 59.2011 59.584 59.2011 59.936V61.52C59.2011 61.696 59.1611 61.824 59.0811 61.904C59.0171 61.968 58.8891 62 58.6971 62ZM52.7211 55.184H55.9851C56.1611 55.184 56.2491 55.096 56.2491 54.92V53.768C56.2491 53.256 56.1451 52.896 55.9371 52.688C55.7291 52.48 55.3691 52.376 54.8571 52.376H53.8491C53.3371 52.376 52.9771 52.48 52.7691 52.688C52.5611 52.896 52.4571 53.256 52.4571 53.768V54.92C52.4571 55.096 52.5451 55.184 52.7211 55.184ZM71.2765 62H69.2365C68.9005 62 68.7325 61.832 68.7325 61.496V50.264C68.7325 49.928 68.9005 49.76 69.2365 49.76H71.2765C71.6125 49.76 71.7805 49.928 71.7805 50.264V51.08H71.8765C72.0525 50.648 72.3645 50.32 72.8125 50.096C73.2605 49.872 73.7325 49.76 74.2285 49.76H75.0925C75.4125 49.76 75.5725 49.928 75.5725 50.264V51.92C75.5725 52.112 75.5325 52.248 75.4525 52.328C75.3885 52.392 75.2685 52.416 75.0925 52.4H73.4365C72.3325 52.4 71.7805 53.024 71.7805 54.272V61.496C71.7805 61.832 71.6125 62 71.2765 62ZM16.888 103H13.528C13.176 103 12.976 102.832 12.928 102.496L10.36 88.072C10.312 87.736 10.48 87.568 10.864 87.568H13.36C13.728 87.568 13.92 87.736 13.936 88.072L15.328 99.904H15.496L17.8 88C17.848 87.712 18.016 87.568 18.304 87.568H20.992C21.296 87.568 21.472 87.704 21.52 87.976L23.872 99.904H24.064L25.432 88.096C25.448 87.744 25.64 87.568 26.008 87.568H28.504C28.888 87.568 29.056 87.744 29.008 88.096L26.416 102.496C26.368 102.832 26.184 103 25.864 103H22.48C22.144 103 21.952 102.832 21.904 102.496L19.744 91.24H19.648L17.464 102.496C17.4 102.832 17.208 103 16.888 103ZM37.9994 88.696V86.608C37.9994 86.288 38.1594 86.128 38.4794 86.128H40.5674C40.8874 86.128 41.0474 86.28 41.0474 86.584V88.696C41.0474 89.016 40.8874 89.176 40.5674 89.176H38.4794C38.1594 89.176 37.9994 89.016 37.9994 88.696ZM37.9994 102.496V91.264C37.9994 90.928 38.1594 90.76 38.4794 90.76H40.5434C40.8794 90.76 41.0474 90.928 41.0474 91.264V102.496C41.0474 102.704 41.0074 102.84 40.9274 102.904C40.8634 102.968 40.7434 103 40.5674 103H38.5034C38.1674 103 37.9994 102.832 37.9994 102.496ZM51.2731 93.4H50.3131C50.1211 93.4 49.9851 93.368 49.9051 93.304C49.8411 93.24 49.8091 93.112 49.8091 92.92V91.264C49.8091 90.928 49.9771 90.76 50.3131 90.76H51.2731C51.4491 90.76 51.5371 90.672 51.5371 90.496V88.216C51.5371 87.88 51.7131 87.712 52.0651 87.712H54.0811C54.4171 87.712 54.5851 87.88 54.5851 88.216V90.496C54.5851 90.672 54.6811 90.76 54.8731 90.76H56.7451C57.0811 90.76 57.2491 90.928 57.2491 91.264V92.92C57.2491 93.096 57.2091 93.224 57.1291 93.304C57.0651 93.368 56.9371 93.4 56.7451 93.4H54.8731C54.6811 93.4 54.5851 93.488 54.5851 93.664V98.968C54.5851 99.464 54.6971 99.824 54.9211 100.048C55.1451 100.256 55.5131 100.36 56.0251 100.36H56.9851C57.3211 100.36 57.4891 100.528 57.4891 100.864V102.52C57.4891 102.696 57.4491 102.824 57.3691 102.904C57.3051 102.968 57.1771 103 56.9851 103H55.5211C54.2571 103 53.2731 102.664 52.5691 101.992C51.8811 101.32 51.5371 100.36 51.5371 99.112V93.664C51.5371 93.488 51.4491 93.4 51.2731 93.4ZM69.214 103H67.174C66.838 103 66.67 102.832 66.67 102.496V86.632C66.67 86.296 66.838 86.128 67.174 86.128H69.214C69.55 86.128 69.718 86.296 69.718 86.632V92.056H69.814C70.166 91.192 70.95 90.76 72.166 90.76H72.934C75.446 90.76 76.702 92.064 76.702 94.672V102.496C76.702 102.832 76.526 103 76.174 103H74.158C73.822 103 73.654 102.832 73.654 102.496V94.816C73.654 94.304 73.542 93.944 73.318 93.736C73.11 93.512 72.75 93.4 72.238 93.4H71.374C70.27 93.4 69.718 94.008 69.718 95.224V102.496C69.718 102.832 69.55 103 69.214 103ZM90.9205 103H89.9365C88.7045 103 87.7685 102.664 87.1285 101.992C86.5045 101.32 86.1925 100.352 86.1925 99.088V94.672C86.1925 93.408 86.5045 92.44 87.1285 91.768C87.7685 91.096 88.7045 90.76 89.9365 90.76H90.9205C91.4165 90.76 91.8885 90.872 92.3365 91.096C92.7845 91.304 93.0965 91.624 93.2725 92.056H93.3685V86.632C93.3685 86.296 93.5365 86.128 93.8725 86.128H95.9125C96.2485 86.128 96.4165 86.296 96.4165 86.632V102.496C96.4165 102.832 96.2485 103 95.9125 103H93.8725C93.5365 103 93.3685 102.832 93.3685 102.496V101.704H93.2725C93.0965 102.136 92.7845 102.464 92.3365 102.688C91.8885 102.896 91.4165 103 90.9205 103ZM93.3685 98.536V95.224C93.3685 94.008 92.8165 93.4 91.7125 93.4H90.6325C90.1205 93.4 89.7605 93.512 89.5525 93.736C89.3445 93.944 89.2405 94.304 89.2405 94.816V98.944C89.2405 99.456 89.3445 99.824 89.5525 100.048C89.7605 100.256 90.1205 100.36 90.6325 100.36H91.7125C92.8165 100.36 93.3685 99.752 93.3685 98.536ZM108.809 103H106.769C106.433 103 106.265 102.832 106.265 102.496V91.264C106.265 90.928 106.433 90.76 106.769 90.76H108.809C109.145 90.76 109.313 90.928 109.313 91.264V92.08H109.409C109.585 91.648 109.897 91.32 110.345 91.096C110.793 90.872 111.265 90.76 111.761 90.76H112.625C112.945 90.76 113.105 90.928 113.105 91.264V92.92C113.105 93.112 113.065 93.248 112.985 93.328C112.921 93.392 112.801 93.416 112.625 93.4H110.969C109.865 93.4 109.313 94.024 109.313 95.272V102.496C109.313 102.832 109.145 103 108.809 103ZM126.128 103H125.552C124.288 103 123.312 102.664 122.624 101.992C121.936 101.32 121.592 100.352 121.592 99.088V94.672C121.592 93.408 121.936 92.44 122.624 91.768C123.312 91.096 124.288 90.76 125.552 90.76H131.096C131.448 90.76 131.624 90.928 131.624 91.264V102.496C131.624 102.832 131.448 103 131.096 103H129.08C128.744 103 128.576 102.832 128.576 102.496V101.704H128.48C128.304 102.136 127.992 102.464 127.544 102.688C127.096 102.896 126.624 103 126.128 103ZM128.576 98.536V93.664C128.576 93.488 128.48 93.4 128.288 93.4H126.032C125.52 93.4 125.16 93.512 124.952 93.736C124.744 93.944 124.64 94.304 124.64 94.816V98.944C124.64 99.456 124.744 99.824 124.952 100.048C125.16 100.256 125.52 100.36 126.032 100.36H126.92C128.024 100.36 128.576 99.752 128.576 98.536ZM146.35 103H143.614C143.31 103 143.118 102.832 143.038 102.496L140.638 91.264C140.574 90.928 140.694 90.76 140.998 90.76H143.302C143.654 90.76 143.846 90.928 143.878 91.264L144.958 99.472H145.15L146.854 91.264C146.902 90.928 147.086 90.76 147.406 90.76H149.518C149.854 90.76 150.054 90.928 150.118 91.264L151.774 99.472H151.966L153.07 91.264C153.118 90.928 153.31 90.76 153.646 90.76H155.95C156.27 90.76 156.39 90.928 156.31 91.264L153.91 102.496C153.846 102.832 153.654 103 153.334 103H150.598C150.278 103 150.086 102.832 150.022 102.496L148.558 94.384H148.366L146.926 102.496C146.878 102.832 146.686 103 146.35 103ZM169.661 103H169.085C167.821 103 166.845 102.664 166.157 101.992C165.469 101.32 165.125 100.352 165.125 99.088V94.672C165.125 93.408 165.469 92.44 166.157 91.768C166.845 91.096 167.821 90.76 169.085 90.76H174.629C174.981 90.76 175.157 90.928 175.157 91.264V102.496C175.157 102.832 174.981 103 174.629 103H172.613C172.277 103 172.109 102.832 172.109 102.496V101.704H172.013C171.837 102.136 171.525 102.464 171.077 102.688C170.629 102.896 170.157 103 169.661 103ZM172.109 98.536V93.664C172.109 93.488 172.013 93.4 171.821 93.4H169.565C169.053 93.4 168.693 93.512 168.485 93.736C168.277 93.944 168.173 94.304 168.173 94.816V98.944C168.173 99.456 168.277 99.824 168.485 100.048C168.693 100.256 169.053 100.36 169.565 100.36H170.453C171.557 100.36 172.109 99.752 172.109 98.536ZM187.651 103H185.611C185.275 103 185.107 102.832 185.107 102.496V86.632C185.107 86.296 185.275 86.128 185.611 86.128H187.651C187.987 86.128 188.155 86.296 188.155 86.632V102.496C188.155 102.832 187.987 103 187.651 103Z" fill="black"/>
</svg>
